<mxfile host="app.diagrams.net" modified="2023-12-12T16:05:49.089Z" agent="Mozilla/5.0 (Windows NT 10.0; Win64; x64) AppleWebKit/537.36 (KHTML, like Gecko) Chrome/119.0.0.0 Safari/537.36" etag="7yClCXhYnDgJPWEYimn1" version="22.1.7" type="github">
  <diagram name="第 1 页" id="ePOAL4VEjYjpW2Qbd3Mj">
    <mxGraphModel dx="670" dy="313" grid="1" gridSize="10" guides="1" tooltips="1" connect="1" arrows="1" fold="1" page="1" pageScale="1" pageWidth="827" pageHeight="1169" math="0" shadow="0">
      <root>
        <mxCell id="0" />
        <mxCell id="1" parent="0" />
        <mxCell id="HdrIIrpfXrWL4ybk8j8O-1" value="" style="whiteSpace=wrap;html=1;aspect=fixed;" vertex="1" parent="1">
          <mxGeometry x="120" y="600" width="280" height="280" as="geometry" />
        </mxCell>
        <mxCell id="HdrIIrpfXrWL4ybk8j8O-13" value="" style="endArrow=none;html=1;rounded=0;" edge="1" parent="1">
          <mxGeometry width="50" height="50" relative="1" as="geometry">
            <mxPoint x="120" y="680" as="sourcePoint" />
            <mxPoint x="400" y="680" as="targetPoint" />
          </mxGeometry>
        </mxCell>
        <mxCell id="HdrIIrpfXrWL4ybk8j8O-14" value="" style="endArrow=none;html=1;rounded=0;" edge="1" parent="1">
          <mxGeometry width="50" height="50" relative="1" as="geometry">
            <mxPoint x="120" y="720" as="sourcePoint" />
            <mxPoint x="400" y="720" as="targetPoint" />
          </mxGeometry>
        </mxCell>
        <mxCell id="HdrIIrpfXrWL4ybk8j8O-15" value="" style="endArrow=none;html=1;rounded=0;" edge="1" parent="1">
          <mxGeometry width="50" height="50" relative="1" as="geometry">
            <mxPoint x="120" y="760" as="sourcePoint" />
            <mxPoint x="400" y="760" as="targetPoint" />
          </mxGeometry>
        </mxCell>
        <mxCell id="HdrIIrpfXrWL4ybk8j8O-16" value="" style="endArrow=none;html=1;rounded=0;" edge="1" parent="1">
          <mxGeometry width="50" height="50" relative="1" as="geometry">
            <mxPoint x="120" y="800" as="sourcePoint" />
            <mxPoint x="400" y="800" as="targetPoint" />
          </mxGeometry>
        </mxCell>
        <mxCell id="HdrIIrpfXrWL4ybk8j8O-17" value="" style="endArrow=none;html=1;rounded=0;" edge="1" parent="1">
          <mxGeometry width="50" height="50" relative="1" as="geometry">
            <mxPoint x="120" y="840" as="sourcePoint" />
            <mxPoint x="400" y="840" as="targetPoint" />
          </mxGeometry>
        </mxCell>
        <mxCell id="HdrIIrpfXrWL4ybk8j8O-18" value="" style="endArrow=none;html=1;rounded=0;" edge="1" parent="1">
          <mxGeometry width="50" height="50" relative="1" as="geometry">
            <mxPoint x="160" y="600" as="sourcePoint" />
            <mxPoint x="160" y="880" as="targetPoint" />
          </mxGeometry>
        </mxCell>
        <mxCell id="HdrIIrpfXrWL4ybk8j8O-19" value="" style="endArrow=none;html=1;rounded=0;" edge="1" parent="1">
          <mxGeometry width="50" height="50" relative="1" as="geometry">
            <mxPoint x="200" y="600" as="sourcePoint" />
            <mxPoint x="200" y="880" as="targetPoint" />
          </mxGeometry>
        </mxCell>
        <mxCell id="HdrIIrpfXrWL4ybk8j8O-20" value="" style="endArrow=none;html=1;rounded=0;" edge="1" parent="1">
          <mxGeometry width="50" height="50" relative="1" as="geometry">
            <mxPoint x="240" y="600" as="sourcePoint" />
            <mxPoint x="240" y="880" as="targetPoint" />
          </mxGeometry>
        </mxCell>
        <mxCell id="HdrIIrpfXrWL4ybk8j8O-21" value="" style="endArrow=none;html=1;rounded=0;" edge="1" parent="1">
          <mxGeometry width="50" height="50" relative="1" as="geometry">
            <mxPoint x="280" y="600" as="sourcePoint" />
            <mxPoint x="280" y="880" as="targetPoint" />
          </mxGeometry>
        </mxCell>
        <mxCell id="HdrIIrpfXrWL4ybk8j8O-22" value="" style="endArrow=none;html=1;rounded=0;" edge="1" parent="1">
          <mxGeometry width="50" height="50" relative="1" as="geometry">
            <mxPoint x="320" y="600" as="sourcePoint" />
            <mxPoint x="320" y="880" as="targetPoint" />
          </mxGeometry>
        </mxCell>
        <mxCell id="HdrIIrpfXrWL4ybk8j8O-35" value="" style="rounded=1;whiteSpace=wrap;html=1;strokeWidth=2;fillWeight=4;hachureGap=8;hachureAngle=45;fillColor=#FF9999;sketch=1;" vertex="1" parent="1">
          <mxGeometry x="140" y="710" width="200" height="150" as="geometry" />
        </mxCell>
        <mxCell id="HdrIIrpfXrWL4ybk8j8O-37" value="" style="shape=image;verticalLabelPosition=bottom;verticalAlign=top;imageAspect=0;aspect=fixed;image=data:image/png,iVBORw0KGgoAAAANSUhEUgAAADcAAAA3CAYAAACo29JGAAAAAXNSR0IArs4c6QAAAARnQU1BAACxjwv8YQUAAAAJcEhZcwAAFxEAABcRAcom8z8AAAMISURBVGhD7ZpLqE1RGMe3N3mUZ4iQFGbyGKGUIaUwlDIwMiWvuBJFZjKhlJEBZh6ZMKDExCMplCLPvAZE3n7/tc537Xucfc861z3uWrV+9Wt/q+669/v2Y6291r5FJpP5rwyoHUOZintwPt7CrxhCf1yF21yrKB7gLx82ZTF24Fi8hz+w11GCx1FJyU0Yylz8iOqno9oh6G8+RPXTiVyDwahzKCNwpg8doQkK9R3uQ3dUO4R+OMqHxSCc4sMwWilOZ++nDx1tuT2a0NLfbKW45MjFpUouLlVycamSi0uVXFyq5OJSJReXKrm4VMnF1ajfZijHzfheOxr17bagDZhmTEJt5S3CdTgdxXU8i81OkAqZhhtdy3MUH+NA16pG+W1G21y6gJfxPt7Al9hjtMN1F3XVYvM2zsEecwQb/eJYPIyVdHdbzsKrOMG1iuIFvsOQW7ldqKAxqEdFvMIlqI3bv+gu0dV42oeOtXgFB7tW36BdZxVzyrU82oU+48NwtC9vl/8OTsQYUB7Kx3JTng2pGuk0Ok72oeMc/tPI1IsoD+Vj2GgezEG0M/MaF2BMLMQ3aDkewCB0xfR5yjrqOYsRDXaW400s32mVrETrJDVxx8h6LOe5Apuikcc6fMAZGCPKy775yfLI3hDNaeV7eRfGzG60XJX3eOykfp5TMfosbOi+1v2sD3+x8Q3noT4rG8p/rw+7opfTi2hnIkWVv71kd2EpahnTqFMq6sur6nCUb8t9uN2HDl12LUs+Y1++T1ahYoahllPlx2Y/7lBgSQ/F5zjatfxbwE48jxoxYy1uJGoK0IWxweQ96q3li2uB1kXlYXULpsRWtNxVx2zsfLdUY4gPHU9rx1R4VjsK1eEWsVacitEzZoyrHVPBHiehOp740KM1mhaidmm1jFiGKbActadiub9Ft+YsDxQaKfVgGvqhRz6MFuWv/2oqXzltKB3y4R802lxDOwMpegkrHynNGSdRc1ujzrH6CU9gl/8Nq5q/tBjcgJoc1TlWlL/ms2OoNWgmEzdF8Rvpb591L82zSAAAAABJRU5ErkJggg==" vertex="1" parent="1">
          <mxGeometry x="264.5" y="800" width="25" height="25" as="geometry" />
        </mxCell>
        <mxCell id="HdrIIrpfXrWL4ybk8j8O-38" value="" style="shape=image;verticalLabelPosition=bottom;verticalAlign=top;imageAspect=0;aspect=fixed;image=data:image/png,iVBORw0KGgoAAAANSUhEUgAAADIAAAAyCAYAAAAeP4ixAAAAAXNSR0IArs4c6QAAAARnQU1BAACxjwv8YQUAAAAJcEhZcwAAFxEAABcRAcom8z8AAAJBSURBVGhD7ZrNSxVRGIdHJcE0/CrbaISE4q6Vf0B/Q+0CaSWI2xZBGLQIBJeJ2xBx56q0pUQtctXGnYFFibgQlD4oM/X53bkXhsu5Z85c5+ABzwMPc2buuefOO/POmcu8kzTBDZzETTzCEzw9pxrjL37CR9iDXhnDdTTtTJm+xVvohV58h6Yf9uEqXkMnWqpLF17gk7Rp5Q8+wy/Ypg0Z/uMoPsV2bcjhMc6lTTtFAtnCO2nTyi+8j+pfH8gx3sUl7NCGHDTGSNq04xrIddSFOFhZy0eTgAIyjX8VXc6G2EYFogNQCkqHPTTlsk+/YT/m0lpd5qFBg8Y1tXR63+NAZS1JPuIM/kbXg5GH0mcIX6LuVeI76prar6yVgALJptYbVK6XzW3UzntLrXp0JovMeN4pKy0unBhIaMRAQiMGEhoxkNCIgYRGDCQ0YiChEQMJjRhIaMRAQiMGEhqXPhA93lS5zAdNjdvss9/PuIIqH9jG0GdX0mbyD20PwxVAH05grVLl/dmvq9r5HdxFVatMfWx6f/brgtJvClXUHEaV0RTMhdKNX9F01Br5HLMozZSOpr6NVAo7pb/rGTlEFTmLsFFd1tCOraVNZ36gvlcq05g9Wnm+wiyqG6pAZOrbyIdYOnobocjLAprRZlGzzjjOo64bU1+Tr7ELvXATF1GvW5h+3KSmzoO6bTaVwgtYK7854XofqecePsDOqrZxdB/RDtpKzPr8J6qkvYwfsBDNBpJFE8Z5x1Egvv4pRCKRJEnOAFkBKcGMBKWYAAAAAElFTkSuQmCC" vertex="1" parent="1">
          <mxGeometry x="190" y="730" width="20" height="20" as="geometry" />
        </mxCell>
        <mxCell id="HdrIIrpfXrWL4ybk8j8O-39" value="" style="shape=image;verticalLabelPosition=bottom;verticalAlign=top;imageAspect=0;aspect=fixed;image=data:image/svg+xml,PHN2ZyB4bWxuczp4bGluaz0iaHR0cDovL3d3dy53My5vcmcvMTk5OS94bGluayIgeG1sbnM9Imh0dHA6Ly93d3cudzMub3JnLzIwMDAvc3ZnIiBoZWlnaHQ9IjIwMCIgd2lkdGg9IjIwMCIgdmVyc2lvbj0iMS4xIiB2aWV3Qm94PSIwIDAgMTAyNCAxMDI0IiBjbGFzcz0iaWNvbiI+PHBhdGggZmlsbD0iIzQyNDI0MiIgZD0iTTM0MC42NDYyNDcgODA5LjE3MDI5OWExMzguMjU4ODI3IDEzOC4yNTg4MjcgMCAxIDEtMTE0LjQyODk5LTExNC40Mjg5OWMxNC44NjE0NjUtMTUuOTQ4NTQgMjguMzkyNjkzLTMxLjM2Nzg0NyA0MC40MDc3MzctNDYuMDU3NjY4YTE5My4wOTg5MjEgMTkzLjA5ODkyMSAwIDAgMC0xOTguODIwMzcgNDYuMDg2Mjc1Yy03NS4yMDg0NTQgNzUuMjA4NDU0LTc1LjIwODQ1NCAxOTcuNTkwMjU4IDAgMjcyLjgxMzAxNnMxOTcuNjA0NTYyIDc1LjIyMjc1NyAyNzIuODI3MzE5IDBhMTkzLjA5ODkyMSAxOTMuMDk4OTIxIDAgMCAwIDQ2LjEwMDU3OS0xOTguNzQ4ODUyYy0xNC43MTg0MjkgMTEuOTg2NDM3LTMwLjE2NjM0MiAyNS40ODkwNTgtNDYuMDg2Mjc1IDQwLjMzNjIxOXpNNzY0LjgwNTkwNSA2NDEuNjg5MTY5Qzc3Ni42MjA2OTkgNjU2LjUzNjMzIDc4OS45NjU5OCA2NzIuMDEyODUxIDgwNC42MTI4OSA2ODguMDA0MzAyQTEzOC4yNzMxMzEgMTM4LjI3MzEzMSAwIDEgMSA2ODkuODQwNjEzIDgwMi44NDgwOTdjLTE1Ljk5MTQ1MS0xNC42MzI2MDctMzEuNDY3OTcyLTI3Ljk2MzU4NC00Ni4zMjk0MzctMzkuNzY0MDc0QTE5My4wOTg5MjEgMTkzLjA5ODkyMSAwIDAgMCA2ODkuODQwNjEzIDk2MC44ODg4MzZjNzUuMjIyNzU3IDc1LjIyMjc1NyAxOTcuNjE4ODY2IDc1LjIyMjc1NyAyNzIuODI3MzIgMHM3NS4yMjI3NTctMTk3LjYwNDU2MiAwLTI3Mi44MjczMTlhMTkzLjA5ODkyMSAxOTMuMDk4OTIxIDAgMCAwLTE5Ny44NjIwMjgtNDYuMzcyMzQ4ek02OTIuODE1NzY3IDIyNy44NTY3MjZhMTM4LjI3MzEzMSAxMzguMjczMTMxIDAgMSAxIDExNC43MDA3NTkgMTE0LjY3MjE1MmMtMTUuMjQ3NjYzIDE2LjUyMDY4NS0yOC41MzU3MjkgMzEuOTI1Njg4LTQwLjA1MDE0NyA0Ni4yMjkzMTJhMTkzLjA5ODkyMSAxOTMuMDk4OTIxIDAgMCAwIDE5OC4yMzM5MjItNDYuMjcyMjIzYzc1LjIyMjc1Ny03NS4yMjI3NTcgNzUuMjIyNzU3LTE5Ny42MDQ1NjIgMC0yNzIuODI3MzE5cy0xOTcuNjE4ODY2LTc1LjIyMjc1Ny0yNzIuODI3MzE5IDBhMTkzLjA5ODkyMSAxOTMuMDk4OTIxIDAgMCAwLTQ2LjI0MzYxNiAxOTguMzM0MDQ3YzEzLjk0NjAzMy0xMS4yNTY5NTIgMjkuMzIyNDI5LTI0LjUzMDcxNSA0Ni4xODY0MDEtNDAuMTM1OTY5ek0yNTguMjg1OTgxIDM3NC45NDA4ODljLTEyLjQ0NDE1My0xNC43NzU2NDMtMjYuMjA0MjM5LTMwLjAzNzYxLTQxLjEyMjkxOC00NS43NzE1OTZhMTM4LjI1ODgyNyAxMzguMjU4ODI3IDAgMSAxIDExMy44MjgyMzgtMTEzLjc4NTMyN2MxNS42NDgxNjQgMTQuOTA0Mzc2IDMwLjk5NTk1MyAyOC42MDcyNDcgNDUuNzcxNTk2IDQxLjEyMjkxOWExOTMuMDk4OTIxIDE5My4wOTg5MjEgMCAwIDAtNDUuNjg1Nzc1LTIwMC4wOTMzOTNDMjU1Ljg1NDM2NS0xOC44MDkyNjUgMTMzLjQyOTY1LTE4LjgwOTI2NSA1OC4yNDk4MDMgNTYuNDEzNDkycy03NS4yMjI3NTcgMTk3LjYwNDU2MiAwIDI3Mi44MjczMTlhMTkzLjE4NDc0MiAxOTMuMTg0NzQyIDAgMCAwIDIwMC4wMzYxNzggNDUuNzAwMDc4ek01MTguMzQwMTY1IDQ2MC4xNzYxODNhNTYuMzI3NjcgNTYuMzI3NjcgMCAxIDAgMzkuOTA3MTEgMTYuNDkyMDc4IDU2LjAxMjk5MSA1Ni4wMTI5OTEgMCAwIDAtMzkuOTA3MTEtMTYuNDkyMDc4eiIvPjxwYXRoIGZpbGw9IiM0MjQyNDIiIGQ9Ik03ODcuOTQ5MTY5IDg0NS4zNDQxNjNjMy4yMDQwMTIgMy40MTg1NjYgMTEuMDU2NzAxIDEyLjMxNTQyIDEyLjcwMTYxNyAxMy45NDYwMzRsMC44MTUzMDcgMC43ODY2OTlhOC4wMTAwMjkgOC4wMTAwMjkgMCAwIDAgMS40MzAzNjIgMS4zMDE2M2MxOS4xOTU0NjMgMTcuMjY0NDc0IDQ2LjgxNTc2MSAxOC41OTQ3MTEgNjIuOTM1OTQ1IDIuNDE3MzEyIDE1LjEzMzIzNC0xNS4xMzMyMzQgMTQuOTQ3Mjg3LTQwLjM5MzQzMyAwLjYxNTA1Ni01OS4zMTcxMjhhMTY5Ljk5ODU2OCAxNjkuOTk4NTY4IDAgMCAwLTEyLjI0MzkwMi0xMi4xNzIzODNjLTEuNTg3NzAyLTEuMzQ0NTQxLTIuODYwNzI1LTIuNTE3NDM4LTMuNDc1NzgxLTMuMDAzNzYxLTQ0LjEyNjY3OS00MC44Nzk3NTctMTg4LjEzNTU2My0xODAuNzI2Mjg2LTE4NS4zMDM0NDUtMjYyLjY1NzQ0MyAwLjExNDQyOS0zLjQxODU2NiAwLTE3Ljc3OTQwNCAwLTIxLjkyNzQ1NS0wLjQwMDUwMS04Mi4yMDI5MjYgMTQxLjYwNTg3NS0yMjAuMDc1NTU1IDE4NS4zNDYzNTYtMjYwLjYxMjAyNSAwLjU0MzUzOC0wLjQ4NjMyMyAxLjg4ODA3OC0xLjY1OTIyIDMuNDc1NzgxLTMuMDE4MDY1YTE2Ny4wNTIwMjIgMTY3LjA1MjAyMiAwIDAgMCAxMi4yNDM5MDItMTIuMTU4MDhjMTQuMzAzNjI0LTE4LjkyMzY5NCAxNC41MTgxNzgtNDQuMTgzODk0LTAuNjE1MDU2LTU5LjMxNzEyOC0xNi4xMjAxODQtMTYuMTIwMTg0LTQzLjc0MDQ4MS0xNC44NDcxNjEtNjIuOTM1OTQ1IDIuNDE3MzEzYTguMDEwMDI5IDguMDEwMDI5IDAgMCAwLTEuNDMwMzYyIDEuMzAxNjNjLTAuMjcxNzY5IDAuMjcxNzY5LTAuNTQzNTM4IDAuNTE0OTMtMC44MTUzMDcgMC43NzIzOTUtMS42NDQ5MTcgMS42NDQ5MTctOS40OTc2MDYgMTAuNTQxNzcxLTEyLjcwMTYxOCAxMy45NzQ2NDEtNDMuMDY4MjExIDQ2LjEyOTE4Ny0xNzAuNTk5MzIgMTc1LjUzNDA3MS0yNTEuMjI4ODQ3IDE4MS42NTYwMjEtNi4zNTA4MDkgMC40ODYzMjMtMjguMDYzNzEgMC4zODYxOTgtMzMuMzcwMzU0IDAuMTcxNjQ0LTgyLjU0NjIxMy0zLjI0NjkyMy0yMTcuNDE1MDgxLTE0Mi4xMDY1MDItMjU3LjM1MDc5OS0xODUuMjg5MTQyLTAuNTAwNjI3LTAuNTQzNTM4LTEuNjU5MjItMS44ODgwNzgtMy4wMTgwNjQtMy40NzU3ODFhMTY0LjI2MjgxNSAxNjQuMjYyODE1IDAgMCAwLTEyLjE1ODA4LTEyLjI0MzkwMmMtMTguOTIzNjk0LTE0LjMwMzYyNC00NC4xODM4OTQtMTQuNTE4MTc4LTU5LjMxNzEyOCAwLjYwMDc1Mi0xNi4xMjAxODQgMTYuMTM0NDg4LTE0Ljg2MTQ2NSA0My43NTQ3ODUgMi40MTczMTIgNjIuOTM1OTQ1YTguNjgyMyA4LjY4MjMgMCAwIDAgMS4zMDE2MyAxLjQzMDM2MmwwLjc3MjM5NiAwLjgwMTAwM2MxLjY0NDkxNyAxLjY1OTIyIDEwLjU0MTc3MSA5LjQ5NzYwNiAxMy45NjAzMzYgMTIuNzAxNjE4QzIzNC44OTk1NTYgMjg5LjM2MjMwOCAzNTguODI2MTUzIDQxMS40NDM3MzcgMzcwLjg2OTgwNCA0OTIuMjU5MjExYzEuMzAxNjMgOC42OTY2MDMgMS4yMTU4MDggNDQuMjEyNTAxLTEuMTE1NjgzIDU1LjIyNjI5Mi0xNy4xNjQzNDggODAuNzI5NjUyLTEzNS45OTg4NTUgMTk3LjczMzI5NS0xNzkuODEwODU0IDIzOC42MjczNTUtMy40MTg1NjYgMy4yMTgzMTUtMTIuMzE1NDIgMTEuMDU2NzAxLTEzLjk2MDMzNyAxMi43MDE2MTdsLTAuNzcyMzk1IDAuODE1MzA3YTguMDEwMDI5IDguMDEwMDI5IDAgMCAwLTEuMzAxNjMgMS40MzAzNjJjLTE3LjI3ODc3NyAxOS4xOTU0NjMtMTguNTk0NzExIDQ2LjgxNTc2MS0yLjQxNzMxMyA2Mi45MzU5NDUgMTUuMTMzMjM0IDE1LjEzMzIzNCA0MC4zOTM0MzMgMTQuOTYxNTkgNTkuMzE3MTI4IDAuNjE1MDU2YTE2Ny4wNTIwMjIgMTY3LjA1MjAyMiAwIDAgMCAxMi4xNTgwOC0xMi4yNDM5MDJjMS4zNTg4NDQtMS41ODc3MDIgMi41MTc0MzgtMi44NjA3MjUgMy4wMzIzNjgtMy40NzU3ODFDMjg1LjA0ODA2MSA4MDYuNzI0Mzc5IDQxNC40NjcyNDkgNjczLjM0MzA4OCA0OTcuMzg1MzU2IDY2NC4wMzE0MjljNy40ODA3OTUtMC44NDM5MTQgMzMuOTU2ODAzLTAuODE1MzA3IDQwLjg2NTQ1My0wLjE1NzM0QzYxOC45NjYxNTggNjcxLjQ4MzYxNyA3NDUuMTUyNzI2IDc5OS41NzI1NjcgNzg3Ljk0OTE2OSA4NDUuMzQ0MTYzek01ODAuMjQ2MjQ4IDU3OC40MDk5MzdhODcuNTUyNDgxIDg3LjU1MjQ4MSAwIDEgMSAwLTEyMy44MTIxNjcgODYuOTgwMzM2IDg2Ljk4MDMzNiAwIDAgMSAwIDEyMy44MTIxNjd6Ii8+PC9zdmc+" vertex="1" parent="1">
          <mxGeometry x="130" y="650" width="20" height="20" as="geometry" />
        </mxCell>
        <mxCell id="HdrIIrpfXrWL4ybk8j8O-41" value="" style="endArrow=none;html=1;rounded=0;exitX=0.5;exitY=0.5;exitDx=0;exitDy=0;entryX=0.5;entryY=0.5;entryDx=0;entryDy=0;entryPerimeter=0;exitPerimeter=0;fillColor=#FF0000;strokeColor=#00FFFF;" edge="1" parent="1" source="HdrIIrpfXrWL4ybk8j8O-39" target="HdrIIrpfXrWL4ybk8j8O-38">
          <mxGeometry width="50" height="50" relative="1" as="geometry">
            <mxPoint x="260" y="700" as="sourcePoint" />
            <mxPoint x="310" y="650" as="targetPoint" />
          </mxGeometry>
        </mxCell>
        <mxCell id="HdrIIrpfXrWL4ybk8j8O-43" value="" style="shape=image;verticalLabelPosition=bottom;verticalAlign=top;imageAspect=0;aspect=fixed;image=data:image/svg+xml,PHN2ZyB4bWxuczp4bGluaz0iaHR0cDovL3d3dy53My5vcmcvMTk5OS94bGluayIgeG1sbnM9Imh0dHA6Ly93d3cudzMub3JnLzIwMDAvc3ZnIiBoZWlnaHQ9IjIwMCIgd2lkdGg9IjIwMCIgdmVyc2lvbj0iMS4xIiB2aWV3Qm94PSIwIDAgMTAyNCAxMDI0IiBjbGFzcz0iaWNvbiI+PHBhdGggZmlsbD0iIzQyNDI0MiIgZD0iTTM0MC42NDYyNDcgODA5LjE3MDI5OWExMzguMjU4ODI3IDEzOC4yNTg4MjcgMCAxIDEtMTE0LjQyODk5LTExNC40Mjg5OWMxNC44NjE0NjUtMTUuOTQ4NTQgMjguMzkyNjkzLTMxLjM2Nzg0NyA0MC40MDc3MzctNDYuMDU3NjY4YTE5My4wOTg5MjEgMTkzLjA5ODkyMSAwIDAgMC0xOTguODIwMzcgNDYuMDg2Mjc1Yy03NS4yMDg0NTQgNzUuMjA4NDU0LTc1LjIwODQ1NCAxOTcuNTkwMjU4IDAgMjcyLjgxMzAxNnMxOTcuNjA0NTYyIDc1LjIyMjc1NyAyNzIuODI3MzE5IDBhMTkzLjA5ODkyMSAxOTMuMDk4OTIxIDAgMCAwIDQ2LjEwMDU3OS0xOTguNzQ4ODUyYy0xNC43MTg0MjkgMTEuOTg2NDM3LTMwLjE2NjM0MiAyNS40ODkwNTgtNDYuMDg2Mjc1IDQwLjMzNjIxOXpNNzY0LjgwNTkwNSA2NDEuNjg5MTY5Qzc3Ni42MjA2OTkgNjU2LjUzNjMzIDc4OS45NjU5OCA2NzIuMDEyODUxIDgwNC42MTI4OSA2ODguMDA0MzAyQTEzOC4yNzMxMzEgMTM4LjI3MzEzMSAwIDEgMSA2ODkuODQwNjEzIDgwMi44NDgwOTdjLTE1Ljk5MTQ1MS0xNC42MzI2MDctMzEuNDY3OTcyLTI3Ljk2MzU4NC00Ni4zMjk0MzctMzkuNzY0MDc0QTE5My4wOTg5MjEgMTkzLjA5ODkyMSAwIDAgMCA2ODkuODQwNjEzIDk2MC44ODg4MzZjNzUuMjIyNzU3IDc1LjIyMjc1NyAxOTcuNjE4ODY2IDc1LjIyMjc1NyAyNzIuODI3MzIgMHM3NS4yMjI3NTctMTk3LjYwNDU2MiAwLTI3Mi44MjczMTlhMTkzLjA5ODkyMSAxOTMuMDk4OTIxIDAgMCAwLTE5Ny44NjIwMjgtNDYuMzcyMzQ4ek02OTIuODE1NzY3IDIyNy44NTY3MjZhMTM4LjI3MzEzMSAxMzguMjczMTMxIDAgMSAxIDExNC43MDA3NTkgMTE0LjY3MjE1MmMtMTUuMjQ3NjYzIDE2LjUyMDY4NS0yOC41MzU3MjkgMzEuOTI1Njg4LTQwLjA1MDE0NyA0Ni4yMjkzMTJhMTkzLjA5ODkyMSAxOTMuMDk4OTIxIDAgMCAwIDE5OC4yMzM5MjItNDYuMjcyMjIzYzc1LjIyMjc1Ny03NS4yMjI3NTcgNzUuMjIyNzU3LTE5Ny42MDQ1NjIgMC0yNzIuODI3MzE5cy0xOTcuNjE4ODY2LTc1LjIyMjc1Ny0yNzIuODI3MzE5IDBhMTkzLjA5ODkyMSAxOTMuMDk4OTIxIDAgMCAwLTQ2LjI0MzYxNiAxOTguMzM0MDQ3YzEzLjk0NjAzMy0xMS4yNTY5NTIgMjkuMzIyNDI5LTI0LjUzMDcxNSA0Ni4xODY0MDEtNDAuMTM1OTY5ek0yNTguMjg1OTgxIDM3NC45NDA4ODljLTEyLjQ0NDE1My0xNC43NzU2NDMtMjYuMjA0MjM5LTMwLjAzNzYxLTQxLjEyMjkxOC00NS43NzE1OTZhMTM4LjI1ODgyNyAxMzguMjU4ODI3IDAgMSAxIDExMy44MjgyMzgtMTEzLjc4NTMyN2MxNS42NDgxNjQgMTQuOTA0Mzc2IDMwLjk5NTk1MyAyOC42MDcyNDcgNDUuNzcxNTk2IDQxLjEyMjkxOWExOTMuMDk4OTIxIDE5My4wOTg5MjEgMCAwIDAtNDUuNjg1Nzc1LTIwMC4wOTMzOTNDMjU1Ljg1NDM2NS0xOC44MDkyNjUgMTMzLjQyOTY1LTE4LjgwOTI2NSA1OC4yNDk4MDMgNTYuNDEzNDkycy03NS4yMjI3NTcgMTk3LjYwNDU2MiAwIDI3Mi44MjczMTlhMTkzLjE4NDc0MiAxOTMuMTg0NzQyIDAgMCAwIDIwMC4wMzYxNzggNDUuNzAwMDc4ek01MTguMzQwMTY1IDQ2MC4xNzYxODNhNTYuMzI3NjcgNTYuMzI3NjcgMCAxIDAgMzkuOTA3MTEgMTYuNDkyMDc4IDU2LjAxMjk5MSA1Ni4wMTI5OTEgMCAwIDAtMzkuOTA3MTEtMTYuNDkyMDc4eiIvPjxwYXRoIGZpbGw9IiM0MjQyNDIiIGQ9Ik03ODcuOTQ5MTY5IDg0NS4zNDQxNjNjMy4yMDQwMTIgMy40MTg1NjYgMTEuMDU2NzAxIDEyLjMxNTQyIDEyLjcwMTYxNyAxMy45NDYwMzRsMC44MTUzMDcgMC43ODY2OTlhOC4wMTAwMjkgOC4wMTAwMjkgMCAwIDAgMS40MzAzNjIgMS4zMDE2M2MxOS4xOTU0NjMgMTcuMjY0NDc0IDQ2LjgxNTc2MSAxOC41OTQ3MTEgNjIuOTM1OTQ1IDIuNDE3MzEyIDE1LjEzMzIzNC0xNS4xMzMyMzQgMTQuOTQ3Mjg3LTQwLjM5MzQzMyAwLjYxNTA1Ni01OS4zMTcxMjhhMTY5Ljk5ODU2OCAxNjkuOTk4NTY4IDAgMCAwLTEyLjI0MzkwMi0xMi4xNzIzODNjLTEuNTg3NzAyLTEuMzQ0NTQxLTIuODYwNzI1LTIuNTE3NDM4LTMuNDc1NzgxLTMuMDAzNzYxLTQ0LjEyNjY3OS00MC44Nzk3NTctMTg4LjEzNTU2My0xODAuNzI2Mjg2LTE4NS4zMDM0NDUtMjYyLjY1NzQ0MyAwLjExNDQyOS0zLjQxODU2NiAwLTE3Ljc3OTQwNCAwLTIxLjkyNzQ1NS0wLjQwMDUwMS04Mi4yMDI5MjYgMTQxLjYwNTg3NS0yMjAuMDc1NTU1IDE4NS4zNDYzNTYtMjYwLjYxMjAyNSAwLjU0MzUzOC0wLjQ4NjMyMyAxLjg4ODA3OC0xLjY1OTIyIDMuNDc1NzgxLTMuMDE4MDY1YTE2Ny4wNTIwMjIgMTY3LjA1MjAyMiAwIDAgMCAxMi4yNDM5MDItMTIuMTU4MDhjMTQuMzAzNjI0LTE4LjkyMzY5NCAxNC41MTgxNzgtNDQuMTgzODk0LTAuNjE1MDU2LTU5LjMxNzEyOC0xNi4xMjAxODQtMTYuMTIwMTg0LTQzLjc0MDQ4MS0xNC44NDcxNjEtNjIuOTM1OTQ1IDIuNDE3MzEzYTguMDEwMDI5IDguMDEwMDI5IDAgMCAwLTEuNDMwMzYyIDEuMzAxNjNjLTAuMjcxNzY5IDAuMjcxNzY5LTAuNTQzNTM4IDAuNTE0OTMtMC44MTUzMDcgMC43NzIzOTUtMS42NDQ5MTcgMS42NDQ5MTctOS40OTc2MDYgMTAuNTQxNzcxLTEyLjcwMTYxOCAxMy45NzQ2NDEtNDMuMDY4MjExIDQ2LjEyOTE4Ny0xNzAuNTk5MzIgMTc1LjUzNDA3MS0yNTEuMjI4ODQ3IDE4MS42NTYwMjEtNi4zNTA4MDkgMC40ODYzMjMtMjguMDYzNzEgMC4zODYxOTgtMzMuMzcwMzU0IDAuMTcxNjQ0LTgyLjU0NjIxMy0zLjI0NjkyMy0yMTcuNDE1MDgxLTE0Mi4xMDY1MDItMjU3LjM1MDc5OS0xODUuMjg5MTQyLTAuNTAwNjI3LTAuNTQzNTM4LTEuNjU5MjItMS44ODgwNzgtMy4wMTgwNjQtMy40NzU3ODFhMTY0LjI2MjgxNSAxNjQuMjYyODE1IDAgMCAwLTEyLjE1ODA4LTEyLjI0MzkwMmMtMTguOTIzNjk0LTE0LjMwMzYyNC00NC4xODM4OTQtMTQuNTE4MTc4LTU5LjMxNzEyOCAwLjYwMDc1Mi0xNi4xMjAxODQgMTYuMTM0NDg4LTE0Ljg2MTQ2NSA0My43NTQ3ODUgMi40MTczMTIgNjIuOTM1OTQ1YTguNjgyMyA4LjY4MjMgMCAwIDAgMS4zMDE2MyAxLjQzMDM2MmwwLjc3MjM5NiAwLjgwMTAwM2MxLjY0NDkxNyAxLjY1OTIyIDEwLjU0MTc3MSA5LjQ5NzYwNiAxMy45NjAzMzYgMTIuNzAxNjE4QzIzNC44OTk1NTYgMjg5LjM2MjMwOCAzNTguODI2MTUzIDQxMS40NDM3MzcgMzcwLjg2OTgwNCA0OTIuMjU5MjExYzEuMzAxNjMgOC42OTY2MDMgMS4yMTU4MDggNDQuMjEyNTAxLTEuMTE1NjgzIDU1LjIyNjI5Mi0xNy4xNjQzNDggODAuNzI5NjUyLTEzNS45OTg4NTUgMTk3LjczMzI5NS0xNzkuODEwODU0IDIzOC42MjczNTUtMy40MTg1NjYgMy4yMTgzMTUtMTIuMzE1NDIgMTEuMDU2NzAxLTEzLjk2MDMzNyAxMi43MDE2MTdsLTAuNzcyMzk1IDAuODE1MzA3YTguMDEwMDI5IDguMDEwMDI5IDAgMCAwLTEuMzAxNjMgMS40MzAzNjJjLTE3LjI3ODc3NyAxOS4xOTU0NjMtMTguNTk0NzExIDQ2LjgxNTc2MS0yLjQxNzMxMyA2Mi45MzU5NDUgMTUuMTMzMjM0IDE1LjEzMzIzNCA0MC4zOTM0MzMgMTQuOTYxNTkgNTkuMzE3MTI4IDAuNjE1MDU2YTE2Ny4wNTIwMjIgMTY3LjA1MjAyMiAwIDAgMCAxMi4xNTgwOC0xMi4yNDM5MDJjMS4zNTg4NDQtMS41ODc3MDIgMi41MTc0MzgtMi44NjA3MjUgMy4wMzIzNjgtMy40NzU3ODFDMjg1LjA0ODA2MSA4MDYuNzI0Mzc5IDQxNC40NjcyNDkgNjczLjM0MzA4OCA0OTcuMzg1MzU2IDY2NC4wMzE0MjljNy40ODA3OTUtMC44NDM5MTQgMzMuOTU2ODAzLTAuODE1MzA3IDQwLjg2NTQ1My0wLjE1NzM0QzYxOC45NjYxNTggNjcxLjQ4MzYxNyA3NDUuMTUyNzI2IDc5OS41NzI1NjcgNzg3Ljk0OTE2OSA4NDUuMzQ0MTYzek01ODAuMjQ2MjQ4IDU3OC40MDk5MzdhODcuNTUyNDgxIDg3LjU1MjQ4MSAwIDEgMSAwLTEyMy44MTIxNjcgODYuOTgwMzM2IDg2Ljk4MDMzNiAwIDAgMSAwIDEyMy44MTIxNjd6Ii8+PC9zdmc+" vertex="1" parent="1">
          <mxGeometry x="250" y="650" width="20" height="20" as="geometry" />
        </mxCell>
        <mxCell id="HdrIIrpfXrWL4ybk8j8O-44" value="" style="endArrow=none;html=1;rounded=0;strokeColor=#33FFFF;entryX=0.5;entryY=0.5;entryDx=0;entryDy=0;entryPerimeter=0;" edge="1" parent="1" target="HdrIIrpfXrWL4ybk8j8O-43">
          <mxGeometry width="50" height="50" relative="1" as="geometry">
            <mxPoint x="200" y="740" as="sourcePoint" />
            <mxPoint x="400" y="680" as="targetPoint" />
          </mxGeometry>
        </mxCell>
        <mxCell id="HdrIIrpfXrWL4ybk8j8O-45" value="" style="shape=image;verticalLabelPosition=bottom;verticalAlign=top;imageAspect=0;aspect=fixed;image=data:image/svg+xml,PHN2ZyB4bWxuczp4bGluaz0iaHR0cDovL3d3dy53My5vcmcvMTk5OS94bGluayIgeG1sbnM9Imh0dHA6Ly93d3cudzMub3JnLzIwMDAvc3ZnIiBoZWlnaHQ9IjIwMCIgd2lkdGg9IjIwMCIgdmVyc2lvbj0iMS4xIiB2aWV3Qm94PSIwIDAgMTAyNCAxMDI0IiBjbGFzcz0iaWNvbiI+PHBhdGggZmlsbD0iIzQyNDI0MiIgZD0iTTM0MC42NDYyNDcgODA5LjE3MDI5OWExMzguMjU4ODI3IDEzOC4yNTg4MjcgMCAxIDEtMTE0LjQyODk5LTExNC40Mjg5OWMxNC44NjE0NjUtMTUuOTQ4NTQgMjguMzkyNjkzLTMxLjM2Nzg0NyA0MC40MDc3MzctNDYuMDU3NjY4YTE5My4wOTg5MjEgMTkzLjA5ODkyMSAwIDAgMC0xOTguODIwMzcgNDYuMDg2Mjc1Yy03NS4yMDg0NTQgNzUuMjA4NDU0LTc1LjIwODQ1NCAxOTcuNTkwMjU4IDAgMjcyLjgxMzAxNnMxOTcuNjA0NTYyIDc1LjIyMjc1NyAyNzIuODI3MzE5IDBhMTkzLjA5ODkyMSAxOTMuMDk4OTIxIDAgMCAwIDQ2LjEwMDU3OS0xOTguNzQ4ODUyYy0xNC43MTg0MjkgMTEuOTg2NDM3LTMwLjE2NjM0MiAyNS40ODkwNTgtNDYuMDg2Mjc1IDQwLjMzNjIxOXpNNzY0LjgwNTkwNSA2NDEuNjg5MTY5Qzc3Ni42MjA2OTkgNjU2LjUzNjMzIDc4OS45NjU5OCA2NzIuMDEyODUxIDgwNC42MTI4OSA2ODguMDA0MzAyQTEzOC4yNzMxMzEgMTM4LjI3MzEzMSAwIDEgMSA2ODkuODQwNjEzIDgwMi44NDgwOTdjLTE1Ljk5MTQ1MS0xNC42MzI2MDctMzEuNDY3OTcyLTI3Ljk2MzU4NC00Ni4zMjk0MzctMzkuNzY0MDc0QTE5My4wOTg5MjEgMTkzLjA5ODkyMSAwIDAgMCA2ODkuODQwNjEzIDk2MC44ODg4MzZjNzUuMjIyNzU3IDc1LjIyMjc1NyAxOTcuNjE4ODY2IDc1LjIyMjc1NyAyNzIuODI3MzIgMHM3NS4yMjI3NTctMTk3LjYwNDU2MiAwLTI3Mi44MjczMTlhMTkzLjA5ODkyMSAxOTMuMDk4OTIxIDAgMCAwLTE5Ny44NjIwMjgtNDYuMzcyMzQ4ek02OTIuODE1NzY3IDIyNy44NTY3MjZhMTM4LjI3MzEzMSAxMzguMjczMTMxIDAgMSAxIDExNC43MDA3NTkgMTE0LjY3MjE1MmMtMTUuMjQ3NjYzIDE2LjUyMDY4NS0yOC41MzU3MjkgMzEuOTI1Njg4LTQwLjA1MDE0NyA0Ni4yMjkzMTJhMTkzLjA5ODkyMSAxOTMuMDk4OTIxIDAgMCAwIDE5OC4yMzM5MjItNDYuMjcyMjIzYzc1LjIyMjc1Ny03NS4yMjI3NTcgNzUuMjIyNzU3LTE5Ny42MDQ1NjIgMC0yNzIuODI3MzE5cy0xOTcuNjE4ODY2LTc1LjIyMjc1Ny0yNzIuODI3MzE5IDBhMTkzLjA5ODkyMSAxOTMuMDk4OTIxIDAgMCAwLTQ2LjI0MzYxNiAxOTguMzM0MDQ3YzEzLjk0NjAzMy0xMS4yNTY5NTIgMjkuMzIyNDI5LTI0LjUzMDcxNSA0Ni4xODY0MDEtNDAuMTM1OTY5ek0yNTguMjg1OTgxIDM3NC45NDA4ODljLTEyLjQ0NDE1My0xNC43NzU2NDMtMjYuMjA0MjM5LTMwLjAzNzYxLTQxLjEyMjkxOC00NS43NzE1OTZhMTM4LjI1ODgyNyAxMzguMjU4ODI3IDAgMSAxIDExMy44MjgyMzgtMTEzLjc4NTMyN2MxNS42NDgxNjQgMTQuOTA0Mzc2IDMwLjk5NTk1MyAyOC42MDcyNDcgNDUuNzcxNTk2IDQxLjEyMjkxOWExOTMuMDk4OTIxIDE5My4wOTg5MjEgMCAwIDAtNDUuNjg1Nzc1LTIwMC4wOTMzOTNDMjU1Ljg1NDM2NS0xOC44MDkyNjUgMTMzLjQyOTY1LTE4LjgwOTI2NSA1OC4yNDk4MDMgNTYuNDEzNDkycy03NS4yMjI3NTcgMTk3LjYwNDU2MiAwIDI3Mi44MjczMTlhMTkzLjE4NDc0MiAxOTMuMTg0NzQyIDAgMCAwIDIwMC4wMzYxNzggNDUuNzAwMDc4ek01MTguMzQwMTY1IDQ2MC4xNzYxODNhNTYuMzI3NjcgNTYuMzI3NjcgMCAxIDAgMzkuOTA3MTEgMTYuNDkyMDc4IDU2LjAxMjk5MSA1Ni4wMTI5OTEgMCAwIDAtMzkuOTA3MTEtMTYuNDkyMDc4eiIvPjxwYXRoIGZpbGw9IiM0MjQyNDIiIGQ9Ik03ODcuOTQ5MTY5IDg0NS4zNDQxNjNjMy4yMDQwMTIgMy40MTg1NjYgMTEuMDU2NzAxIDEyLjMxNTQyIDEyLjcwMTYxNyAxMy45NDYwMzRsMC44MTUzMDcgMC43ODY2OTlhOC4wMTAwMjkgOC4wMTAwMjkgMCAwIDAgMS40MzAzNjIgMS4zMDE2M2MxOS4xOTU0NjMgMTcuMjY0NDc0IDQ2LjgxNTc2MSAxOC41OTQ3MTEgNjIuOTM1OTQ1IDIuNDE3MzEyIDE1LjEzMzIzNC0xNS4xMzMyMzQgMTQuOTQ3Mjg3LTQwLjM5MzQzMyAwLjYxNTA1Ni01OS4zMTcxMjhhMTY5Ljk5ODU2OCAxNjkuOTk4NTY4IDAgMCAwLTEyLjI0MzkwMi0xMi4xNzIzODNjLTEuNTg3NzAyLTEuMzQ0NTQxLTIuODYwNzI1LTIuNTE3NDM4LTMuNDc1NzgxLTMuMDAzNzYxLTQ0LjEyNjY3OS00MC44Nzk3NTctMTg4LjEzNTU2My0xODAuNzI2Mjg2LTE4NS4zMDM0NDUtMjYyLjY1NzQ0MyAwLjExNDQyOS0zLjQxODU2NiAwLTE3Ljc3OTQwNCAwLTIxLjkyNzQ1NS0wLjQwMDUwMS04Mi4yMDI5MjYgMTQxLjYwNTg3NS0yMjAuMDc1NTU1IDE4NS4zNDYzNTYtMjYwLjYxMjAyNSAwLjU0MzUzOC0wLjQ4NjMyMyAxLjg4ODA3OC0xLjY1OTIyIDMuNDc1NzgxLTMuMDE4MDY1YTE2Ny4wNTIwMjIgMTY3LjA1MjAyMiAwIDAgMCAxMi4yNDM5MDItMTIuMTU4MDhjMTQuMzAzNjI0LTE4LjkyMzY5NCAxNC41MTgxNzgtNDQuMTgzODk0LTAuNjE1MDU2LTU5LjMxNzEyOC0xNi4xMjAxODQtMTYuMTIwMTg0LTQzLjc0MDQ4MS0xNC44NDcxNjEtNjIuOTM1OTQ1IDIuNDE3MzEzYTguMDEwMDI5IDguMDEwMDI5IDAgMCAwLTEuNDMwMzYyIDEuMzAxNjNjLTAuMjcxNzY5IDAuMjcxNzY5LTAuNTQzNTM4IDAuNTE0OTMtMC44MTUzMDcgMC43NzIzOTUtMS42NDQ5MTcgMS42NDQ5MTctOS40OTc2MDYgMTAuNTQxNzcxLTEyLjcwMTYxOCAxMy45NzQ2NDEtNDMuMDY4MjExIDQ2LjEyOTE4Ny0xNzAuNTk5MzIgMTc1LjUzNDA3MS0yNTEuMjI4ODQ3IDE4MS42NTYwMjEtNi4zNTA4MDkgMC40ODYzMjMtMjguMDYzNzEgMC4zODYxOTgtMzMuMzcwMzU0IDAuMTcxNjQ0LTgyLjU0NjIxMy0zLjI0NjkyMy0yMTcuNDE1MDgxLTE0Mi4xMDY1MDItMjU3LjM1MDc5OS0xODUuMjg5MTQyLTAuNTAwNjI3LTAuNTQzNTM4LTEuNjU5MjItMS44ODgwNzgtMy4wMTgwNjQtMy40NzU3ODFhMTY0LjI2MjgxNSAxNjQuMjYyODE1IDAgMCAwLTEyLjE1ODA4LTEyLjI0MzkwMmMtMTguOTIzNjk0LTE0LjMwMzYyNC00NC4xODM4OTQtMTQuNTE4MTc4LTU5LjMxNzEyOCAwLjYwMDc1Mi0xNi4xMjAxODQgMTYuMTM0NDg4LTE0Ljg2MTQ2NSA0My43NTQ3ODUgMi40MTczMTIgNjIuOTM1OTQ1YTguNjgyMyA4LjY4MjMgMCAwIDAgMS4zMDE2MyAxLjQzMDM2MmwwLjc3MjM5NiAwLjgwMTAwM2MxLjY0NDkxNyAxLjY1OTIyIDEwLjU0MTc3MSA5LjQ5NzYwNiAxMy45NjAzMzYgMTIuNzAxNjE4QzIzNC44OTk1NTYgMjg5LjM2MjMwOCAzNTguODI2MTUzIDQxMS40NDM3MzcgMzcwLjg2OTgwNCA0OTIuMjU5MjExYzEuMzAxNjMgOC42OTY2MDMgMS4yMTU4MDggNDQuMjEyNTAxLTEuMTE1NjgzIDU1LjIyNjI5Mi0xNy4xNjQzNDggODAuNzI5NjUyLTEzNS45OTg4NTUgMTk3LjczMzI5NS0xNzkuODEwODU0IDIzOC42MjczNTUtMy40MTg1NjYgMy4yMTgzMTUtMTIuMzE1NDIgMTEuMDU2NzAxLTEzLjk2MDMzNyAxMi43MDE2MTdsLTAuNzcyMzk1IDAuODE1MzA3YTguMDEwMDI5IDguMDEwMDI5IDAgMCAwLTEuMzAxNjMgMS40MzAzNjJjLTE3LjI3ODc3NyAxOS4xOTU0NjMtMTguNTk0NzExIDQ2LjgxNTc2MS0yLjQxNzMxMyA2Mi45MzU5NDUgMTUuMTMzMjM0IDE1LjEzMzIzNCA0MC4zOTM0MzMgMTQuOTYxNTkgNTkuMzE3MTI4IDAuNjE1MDU2YTE2Ny4wNTIwMjIgMTY3LjA1MjAyMiAwIDAgMCAxMi4xNTgwOC0xMi4yNDM5MDJjMS4zNTg4NDQtMS41ODc3MDIgMi41MTc0MzgtMi44NjA3MjUgMy4wMzIzNjgtMy40NzU3ODFDMjg1LjA0ODA2MSA4MDYuNzI0Mzc5IDQxNC40NjcyNDkgNjczLjM0MzA4OCA0OTcuMzg1MzU2IDY2NC4wMzE0MjljNy40ODA3OTUtMC44NDM5MTQgMzMuOTU2ODAzLTAuODE1MzA3IDQwLjg2NTQ1My0wLjE1NzM0QzYxOC45NjYxNTggNjcxLjQ4MzYxNyA3NDUuMTUyNzI2IDc5OS41NzI1NjcgNzg3Ljk0OTE2OSA4NDUuMzQ0MTYzek01ODAuMjQ2MjQ4IDU3OC40MDk5MzdhODcuNTUyNDgxIDg3LjU1MjQ4MSAwIDEgMSAwLTEyMy44MTIxNjcgODYuOTgwMzM2IDg2Ljk4MDMzNiAwIDAgMSAwIDEyMy44MTIxNjd6Ii8+PC9zdmc+" vertex="1" parent="1">
          <mxGeometry x="290" y="650" width="20" height="20" as="geometry" />
        </mxCell>
        <mxCell id="HdrIIrpfXrWL4ybk8j8O-46" value="" style="endArrow=none;html=1;rounded=0;entryX=0.5;entryY=0.5;entryDx=0;entryDy=0;entryPerimeter=0;" edge="1" parent="1" target="HdrIIrpfXrWL4ybk8j8O-45">
          <mxGeometry width="50" height="50" relative="1" as="geometry">
            <mxPoint x="200" y="740" as="sourcePoint" />
            <mxPoint x="400" y="680" as="targetPoint" />
          </mxGeometry>
        </mxCell>
        <mxCell id="HdrIIrpfXrWL4ybk8j8O-49" value="" style="shape=image;verticalLabelPosition=bottom;verticalAlign=top;imageAspect=0;aspect=fixed;image=data:image/png,iVBORw0KGgoAAAANSUhEUgAAAMgAAADICAYAAACtWK6eAAAAAXNSR0IArs4c6QAAGyFJREFUeF7tXWm4HGWVfk91f5VAQBYJCffeashy09UQFgUk4iCjA4K4og7DIsgig8IgPiKMuLKIg6KijqCggiCIDCo4CILoPMiAbLIKdHVuEqCqExKDJAEySerrrjNP3SRwE+7StVdXf/0vzz3nPee853tT27cQ1E8xoBgYkwFS3CgGFANjM6AEokZHogwsHMDgrCaGggapG/pRxHjKbLpPBPWN014JJE42FdarDNQrYm9iugkEgxk2wbvCdFoXdkJRvSIuJ9C/MvOL7bVy57nL8UonfknYKIEkwWqPYw4NlA9sEd1KRFNGUsHAc+ThC2bTvW4siixDXAKiT7/2d+9zpt36elaUKoFkxXxB49aN8ruItDvGLY/58RLzGYPN1p9G2jUMcRoTfX9TX15JLTlYXYIXsqBMCSQL1gsa0zJKHwCVbu68PL629Io8bfBFvGQNlM+Gpo16pWDG72uOe0jnuPFZKoHEx2VPIzUGSoezVvp1UBKYMZ8IvqjOHs+XmS+pOfIzQfGj2iuBRGVQ+aNulA8h0m5Pmgpm77M1p/WtpOOMxFcCiYntuqF/jYAjQJjFjF9vxe7JRhMvxgSfW5inDX0uge8joq3SSJKYT6s68rI0YvkxlEBiYHq0+2dmLJj8srvvjJVYGUOIXEIs2hHT1k3SHyRCJb0Eea0GudscG4vSiKkEMgbLjQHxFu3/pOU/QI7XiMZA6TDWSreOasP8A9ORp6bRyLRjDG2PN7SniHtAtHvasdN8HlEC2ay78yvlgzzQdQDt6P+Jma+HJ0+vLcbfN5oOfwRr8xug0TEgOmnch0vXnVFbimfTHkRJx7MMcTeIDkg6zmj4BO+cqt26KI3YSiAjWK5XSu8llG4Zhfhnyi33wLZWPsEjOivY/TZfa9ry2DSamVYMy9D9L+QfTCveJnEYi6nt7pXWdxElkA3sN4zyAUza3WM3nVcBtE2YQUEtt1ZdAiuMb958LENcCaITssmLV1EbB1YXy8fTiq8EAmD4YXOy/igBOyVBvH+bVnPk0Ulgp4lZr+jnEvCVNGOOjFXyvH/c/Ot70rn0vECenIqtylvoDwKoJUl2t19FGob+L0z4RZIcjYetee0Pz2m2A3+IjJpvzwvk9ZPjolI6lj9fZ9ryo0mhJ4k7f0Ds52l0f5IxxsMmr/2harN9Uxbxe1ogz0zF9HVb6M+nRnzLNc0laKQWL4ZAjT6YXkncS0TbxwAXGIIYR1UdN7MrV08LJOz8ocBdftWhu64ijQH0M+n3+Ws6wtccwZO9L5tO64IICJFde1ogqd86MHslyDmDDhZG7lzCAEv6sOVLZf1hAGbCoUaHZ/656chjMok9ImhPC2TpNExZOUlPebUa/8y05XFZN36i+HVD/J6IDp7ILpm/82OmLd+UDHYw1J4WiE+VVRF/BOidwWiLYN0FVxHLEJeCKKMpMvyyLuXuM5/HcxFYjs215wVSHxCnk0bfi43RjoDyexVpVMRxDLq6ozKSMOL2B0yn/d9JQIfB7HmBDE3H1Lau/y0MeVF8yp47OLuJBVEw4vZN/ZlsswKY+fs1R54ed11R8HpeID55dUNcT0RHRiEyqC8zX1Nz5MeC+iVl3+jDDlwST4NoalIxxsNl8COmLfcjoJVF/LFiKoEA8HfhaGvaXWk3Ji9XkeE3ViVxF4j2TZsDP56/vY/Gco9qE4uziD9eTCWQDezUDX2ICLPTbBAx/7TqyIwm/r1WqWXot4OQyaYIfhYavIPn2K0/pMl9p7GUQDYwNd6uGp2SGcpunTvTXIZnQvnG4FQ3xE+JKLtbPfa+ZDqtr8ZQSiIQSiAbBWKgDxBNEKXLCfNVpiNPTKS7E4BaFf0IADdkEXv9rVV22/l0WnO6g6HTrDKyS/2byPr775Zoy5mzl8BJs+yFfajIkngYRDukGXdjLH+XRf1ld89ZK7Aqi/idxlQCGcFU3RDHE9FVnZIXmx3zlaYjx126G1ss/61dP94ITb8/7Weu18TBEh7tXWu6f42zriSwlEBGsLp+6ol4AaDJSZA9FmaaV5FndsHktZ64l0BvTrPGkbEYfErNlldkFT9IXCWQzdjK4pvIcArMPzEd+fEgzQtqy4DWqOj+mvvDgvrGZ99da/SVQDbr/Ljb+MQ3SkZF0qW7S5JzkOoVcQWBTk64jDHhmfmprVjuazSxJqscgsZVAtmMsfX/y4rnN277E5TQaPbJzdGyjPIXQVpmayuY+ZUy5F7dMNV/ZA+VQEYZ0VZFfBegT0Ub7CG8mT205a5xrzrMfAKifweJ9vtqdvu3IVjJ1EUJZDSBGGIfED2UUWduNG3X/z4Ry6/RX/4n1ugOEJViAQwHcrFpu+Pu3h4ONnkvJZAxOLYqur/qb2byLXh9BPawRxyvQDdsLH3/5ic9pVkTg+8zbfk28i8iXfhTAhlLIEb5CyAtkykQDPy2ZrvvizKe/A+Bblk8SKBpUXCi+DJ4mVgn95i9DKkvJ4iSt3oG6YA9y596Qnp2s0uZ9zUd+ZcOUn2dyTPbYtu1W+sPZfUh0E/I/7ZT9nDA4GKZ2XZBYbjb3EddQcZhMcsNmgH+o2nLg4I2mQHh501E84L6xmmfxWE3cea/EUsJZBxWGwPiZNYosy++BO+Aqt26p9PGM0CWof+KCId36pOIHeMW03Hfnwh2yqBKIOMQ7k89WTFJrCCQSLkv68MxP2Q68i2dxt54vnin9knY+QcHbee6e01fhtVJ4KeNqQQyAeNWRf8vAP+cdmNejed57zabrQnP/7Mq4gyAvpNZnusFvaZEtO+g7T6VaR4xBlcCmUgggY82jrE76wfdE6Yj9xwP1aqU3wYm/0AbLebogeDYa3+k1mz/KpBTzo2VQCZoEAPlRkUsB2jbrHo53ubNQ/0YaGni8az2zn2Vk4IeN6cE0sGotwxxGYg+2YFpUiZW1XZ33fxj2/DU9bZ4iIjmJhW4E1wGP2zacl7ediTpJPeJbJRAJmJoeIFR+a1U0v7cgWliJuzhmFrT/fnIAJkehfbapWMlWO5mOliSWPEZAiuBdEh+llNPNqS4qGq7gwR4/r+tDL/0j7itYo34kDl2684Oaew6MyWQDluW9fFjw2l6/HGzKX9iDZQPBdFtqW8wsRlXBJxbtd3zOqSwK82UQDps2/wKZnoYnsCY3Y/R9IB3E/i+YCftxp9yN+xIEkfVSiABWLQq4l6A9g/gErspM6/OcnauXxAz7C3J3WtnGytiLzBngEogARrSMMSpTHRpAJfCmTJYliXmDT4vHylccaMUpAQSoMsLt8M27tZieWZTTwLkmpgp8ydNR/4wMfycASuBBGyIZei/AaEQE/EClu6b/9K03eym3YRIOKqLEkhABq3+0kdQKt0Y0K0I5vUpnrt3N+1IEgfpSiABWfSnnliGWJH1W6SAaUcy79YdSSIVvcFZCSQEi1ZF/AigRDd5C5FWYi7duiNJHIQogYRgcb5RfrtH2p9CuHadCzN/q+bIz3Zd4jElrAQSkkjL0Jsg9Id07wq3DTuSHEBAuysSTiBJJZCQpDYM/UImfD6ke+7dirAjSRwkK4GEZNGahhmYpC8K6Z5vN/8sdw9v6/YdSeIgWQkkAouWIR4C0T4RIPLp6nlnm83WxflMLt2slEAi8J2LdeAR8h/VtUA7ksRBjRJIBBaHpmNqW4jnM973NkIFm7oWbUeSOIhRAonIolXRb832QJqIBbzqzuuoJfeqLoEVF2IRcJRAInaxbuhHEWGTpbARIbNx9/BRs+lel03w/EZVAonYmyFgUssQL3T11BPmy01HfiIiFYV0VwKJoa0NQ1zFRMfHAJU+BPMTVUfuXcQdSeIgUwkkBhaHD6kpaX+IASplCF4pWnLPWUtgpxy4a8IpgcTUKqsilmVzrmHIApgLvyNJSGY2cVMCiYNFfxueiv51AF1zzBgD59ds9ysxlV9YGCWQmFrb6IPJZb0eE1yyMMx3mY58R7JBioGuBBJjHy1DPAaicTeajjFcKChmfrEspTm4FMtDAfSYkxJIjA2vG+UzibRvxggZOxQxjqw67g2xAxcUUAkkxsZumHqyLOsdD8csiXGz6bjZnj4VI99pQCmBxMxy3RC/J6KDY4aNDOffWm1JcnYvbPYWmawRAEogcbIJoFERxzLomphhI8Mx8/U1Rx4dGajHAJRAYm64P/WkXRErAZocM3Q0OOZ2yZO7DC5GMxpQb3krgSTQb6sirgXomASgo0EyX2U68sRoIL3lrQQSc7+HT33y9IcJ2DVm6Ohw6ioSmEMlkMCUje+Q961JifmnVUeeEHPZhYVTAomxtZahnw/Cl2KEjB9KXUUCcaoEEoiusY2tiu5v6uyfqZ7/H/OVpiNPyn+i2WeoBBJDD+oD+u5E/ACItogBLnkIdRXpmGMlkI6pGt1w0Y6Ytm6y/hgB0yNCperOzFfXHNmdi7xSZEoJJALZ/hurdW3hXzn2iACTjSuzp5EcnGOjmJvfxcSqEkgEIusV/RYC3hsBIlNXdRWZmH4lkIk5GtXCqujfAHBWSPd8uKmryIR9UAKZkKLXGxRmq5/hE2v5mpojPxaChp5wUQIJ2OYing1S9tzB2U0sCEhFT5grgQRo86KdsPM6IR4l0HYB3HJvqq4iY7dICaTD4bukD1uuKumPEWGwQ5fuMVPPImP2Sgmkw2FsGfrtIBzSoXnXmak5WqO3TAmkg6FsDYjvQKMzOjDtWhNmbrEmK7s+h+e7togEElcCmYDUuiGOJ6KrEuA+h5D8PdOWhf6PICjpSiDjMDbUL+a1NdxTlPM/JhwczGsmvSz7ZqzEyglte8RACWSMRvtnEPIk8XDR3lhNNK4ZOK9mu+dOZNcrf1cCGaXTw6sC2+IhIprbKwNhY50MXjFZk30znsXaXqt9tHqVQEZhxTL0m0D4YK8OEGL+TNWRl/Rq/SPrVgLZbBTUK+VzCNrXenpwMJZUHbdCQLuneQCgBDJiBFj95XdCoztBpPX6wADziaYje+Tt3djdVgLZwI3/UI5J4lGAtul5cQxPYsT8muNWe50LJRAAS6dhyspJ+sMAen5AbHL/7bU/VG22b+plkSiB+Iff9PhD+VgCYOYHao6cpwTSwww0BspfZk07r4cpGLd09rx31Jqtu3qVn56+glgD5UNBdFtujyvIw6hk3GE67qF5SCWLHHpWIFYfqiiLhwDaOgvix7mtuYaIjstTTlqb3zRnsXwsTzmllUtPCuTJqdiqvIX+OICZaRHdSRxmvrvmyAOtivgZQB/txCcVG+YbTEcemUqsnAXpSYFYhn4bCO/OUy8Y7E6Scs7M5/GcM4DtXyExn4jemIscmT29JWf6ueUinxST6DmBWIZ+AQhfTJHjzkJ53tlms3XxRuOGoR/JhOs7c07Bivly05GfSCFSrkL0lEAso/QBUOnmXHXA/ygHftS05T4EeCNzy9O+W/4VTmvJ/uoSvJA3/pLMp2cE4j+Uc0k8TERTkiQ0FLaHPc2m+8TmvpaBPsbwrVYucmYPF9Wa7jmhauxSp54QyJOAXq7o/luYWt76NNGgq1fEKQT6YT7y5pdba2Tf3OV4JR/5JJ9FTwgkd2+FXuvrs1XbnUOAHK/VdUP8iYjenvxwmDgCwTunarcumtiyGBaFF4hliBNB9JM8tovYe3vVaf3vRLlt2I9rPoH0iWwT/zvz8qoj+ycSdeJ5pBSg0AJp9MHksngMoEkp8dlxGAZfUbPlKZ06WAPls6Bp/n7Amf8Y/ImaLS/PPJEUEiisQJwBbPEK6U8QYXYKPAYKweBl262Ts6Yvw+pOHRnQrIr4C4He1KlPgnb+reFM8l/AFfxXWIFYFf1GAB/JY/+0dvu9cxa3bw2a21BF37XF/DgRlYP6xm1PjCOrjntD3Lh5wyukQBqGOJWJLs0b2Rvy+aVpu/55hqF+lqF/FYQvhHKO0YmZn6w5cvcYIXMJVTiBDFX03VrgR3LxQPu6lvOq8jo5Z/Yy/C3saGBAWIb+VB72CGb2Dq05rTvC1tINfoUSyBAwqWUMP3fMySX5zCeZjrwyam6NAfEWJtyf+TR95rtMR74jaj159i+UQCxDXAqiU/NI+MaZunHlVjfEfxLRv8WFFxaHwfvUbOkvVy7krzACaQyUDmOtFPjBN5WuMq/RW7IW52zY4XX0ut4AoT+VGsYKwrjZdNzDM80hweCFEMj6o5hFPa/bhDJ7Z9Wc1jfj7uP8SvkgD9qdceMGwmNmwbI6q4mhQH5dYlwIgeRpKsbmfR9rpm5c46NuiKszX4HIfJXpyBPjqilPOF0vkIZR/gyT9q08kfpqLsztEtEeg7b7dFL5DW2PN7SmiEVZLq4q8tkiXS2Qpw19rkb4a1KDLyouM/6j5rifj4ozkb9V0Y8AkOlHO2b+ds2RZ06Ua7f9vWsFwkCpUdGfBGDmkXRmDJmOu1tak/oyX1xV0LNFulYgDUO/kAmJ/+8cVnzk8X7VpnwwrH9QvwXTsKPUxUIi2iqob1z25HlfqTZb58eFlwecrhRIfUDfnYgfy+0m0xmt324MiJNZoyuyGlhFPFuk6wTiT7VoVHR/eWo+b61CzNSNc0Bn/0aPzzBt+b04a8oSq+sEYlV0f03EWVmSNl7ssDN146rHX1zllkUdRFvEhRkIp2Bni3SVQIZ2Em9ul/GXzOcgjT1ibjRt13+jlOmvbpTPJNJi/zDZaVEE/ljVltd0ap9nu64RiD8RsW3oT4EwK5+E8qopnpxpNPFi1vllvbiqSGeLdI1ArIr+dQBnZz34xopP4OOrtrw6L/ll/Y2I0X5/zW7fkhc+wubRFQIZfmul4XX7RoUtOn4//qNpy4Pix42GWK/o5xHw5WgoYb29z5l2y/9Prat/3SGQivgzgd6aS6YTmKkbV53+x1TL0OtpL65K+yNpXHyNhpN7gTQGxMdZox8lSUIUbGLvzKrT+nYUjCR9U19c5a+ZZ/meahOLk6wrLexcC8Tf5Xy1JhYCtG1ahASJk/RM3SC5jGdrVcR3AfpUXHhj4jDf0HLkcXMBN/FYKQXItUAahriKiY5PiYtAYfwZrGWiPZOcqRsooXGMn9kFk9e19QVJL64SL7vbzlqBVXHlnQec3ApkqF/Ma5fovjyQNGoOjAtNx83fMQpjEJbG4iolkBRHa90QfyWiuSmG7DhUt77ntwxxJYhO6LjQTg0Zi0H8TdOW3+nUpVvscnkFqQ+I00mjHM/n8f7BtFv3dkuTN+b5XAXbrWExH0Q7xJW7P4NXL7e+MeNZrI0LM084uRPI0HRMbYnhFXKZTdset0HMl5mOPC1PTQySS2OgdDhrpV8H8Rn9FpOXM/MRRT8iOncCsQzxYxCdFLmBSQAwFrfWuma3n49RN/RfEeFDUShi151RW4pno2B0g2+uBNIwxL5MlNoio6ANIq99WLXZ/l1Qv7zZW9MwA5P0ReHz4pdMW24T3r97PHMlkPr63cv3ziN9zPyLmiOPymNuYXKyDHEJiD4dxtf3KQG7dcMr7rD1bfTLjUCsAXESNPpx1IKS8c/PTN246vO/jaz1dIuAncNgTnR0XBjMPPrkQiALt8M2ciuxIM63K3GSXaT1DSN5aRjlA5i0u8NxxS+XXpEDgy/ipXD+3eGVC4GkNhUiRE/i3lM3RAqJuoTlnplfNB05dfOjqxNNNgPwzAWS9bqF8TnntaIlq7OWwM6gN6mE9E/iWk3C3yl+j0ABmU81HfmDQD5daJy5QOqGuIuIDswnd/xp05bfzWdu8WW1oA9GqyQe6fQWl5mvrzny6PgyyC9SpgJpVMRxDMrNKrxN2sT8oOnI/fLbungzq/eX30ol7c8TojJ+N4XdDxtNrJnQtgAGmQmk3o83oiSG8roju8fYfVfH9Xdu7JmfNaAfAw3Xjl4wv0TM5+V57UsSjcpMIFZFXAPQsUkUFRmTcYHpuBktVY2cfSQA/0oCja7YOFGUGbZG/BuvLc+rLcbfI4F3oXMmAqn3lfenspbXyX6Wabu1LuxlrCn7+wBsqbnNnW2siBW4y8AyEYhlCH/b0D3zyBW3vf1ri1v5XYeSR9IKnFPqArEM8UkQXZZLTrt8pm4uOe3ypFIVyJI+bLmqJBwi2j53vDEWb+u61enLsDp3uamEMmMgVYHUK/q5BHwls2rHCUxe+z3VZvu2POamcsqOgdQEMrxxgCf+BtDW2ZU7xgvMgs3UzRu/3ZxPagLJ77MHv1Ry5ezBpVjezY1UuSfDQGoCqRviPiKal0wZ4VEJfFzVlj8Lj6A8i8xAagKxDOHl7dgCZr6z5sh3FbnBqrZoDKQiEGsHbI0t9ZytGyj+TN1oQ0N5+wykIhA/UGJ7MoXuY2/M1A1Nj3IcZiA1gQyLpCKuBeiYrLln5vtrjsznbvFZk6Pib8JAqgJZOg1TVuhiadZ7XvXKhgNqrEdnIFWB+OnWDX2ICLOjpx4OgYHza7aby4+V4SpSXkkykKpA1u8yLlZndb75hoNdagS0kyRVYReHgVQFUjfKhxBpt2dCHzMTY161KXO7MV0mvKig4zKQqkAsQ78YhM9m0RNm/n7NkadnEVvF7F4GUhVIvaI/RcCuqdOlZuqmTnlRAqYmkKd3xk4a60uyIE6Dd/Acu/WHLGKrmN3NQGoCaQyUDmOtdGvqdDH/3HRk5t9eUq9bBYyFgdQEMr+/9B6vVPptLFl3COLv/leW0lQzdTskTJm9joH0BFLBTA/6wlR74OFYs+mOsY1NqpmoYF3KQGoC8fmxDLG80937IvPJuMN03EMj4yiAnmYgZYHoF4CQ/MmwzGsAOdt0kMlLgZ4eUQUrPlWBpPcmi88wbZnjQ0ALNooKXE6qAll/m6WfD8KXkuKUmR+oOTJ3KxeTqlfhJstA6gLZIJIFIMxKpLSWa5pL0EgEW4H2HAOZCGR+v9irXcIDBNLjZJyB82q2e26cmAqrtxnIRCDDV5FK+d8B7aIY6a+btpv+NJYYC1BQ+WMgM4FsuNWyQTDioIU83k/N1I2DSYUxkoFMBVKviFMI9MOoLemVE1ej8qT8gzOQqUDW32qJewHaP3jqgP/Gijz+vLm49T9h/JWPYmAiBjIXyFA/Blol/UECdpooWf/vDH6UQHcSvFuqduueTnyUjWIgLAOZC8RP/LkKtlvL4mgmOpCZd9xYDBGtBvN8EJ7V2t6CNtr39+IpR2Gbq/yiM5ALgUQvQyEoBpJhQAkkGV4VakEYUAIpSCNVGckwoASSDK8KtSAMKIEUpJGqjGQYUAJJhleFWhAGlEAK0khVRjIMKIEkw6tCLQgDSiAFaaQqIxkG/h82ngRQ6Ao6LgAAAABJRU5ErkJggg==" vertex="1" parent="1">
          <mxGeometry x="250" y="683" width="20" height="20" as="geometry" />
        </mxCell>
        <mxCell id="HdrIIrpfXrWL4ybk8j8O-51" value="" style="shape=image;verticalLabelPosition=bottom;labelBackgroundColor=default;verticalAlign=top;aspect=fixed;imageAspect=0;image=data:image/png,iVBORw0KGgoAAAANSUhEUgAAAFgAAABYCAYAAABxlTA0AAAAAXNSR0IArs4c6QAAAARnQU1BAACxjwv8YQUAAAAJcEhZcwAAHYcAAB2HAY/l8WUAAAOsSURBVHhe7Zs5qBNRGEaf+w6WLrgUKoiCC2glqJVYqlhYuIGFCILggoULKqKFiFhaiTYqdjbaKK4I4oqKiIi7goKFC4rrdyYJJvG9ZJI3N28m8x04zL0zk0zy58+dO3PvdBhjjDHGGGOMMcYYY4wxxqSeXsVlLcbJeTLOvnnhjzwvX0a1bnJR8oa20guyLnGy8pacIY9GNQOr5G05M6p1E96IX8z8g3gQl7rEyWDeaLpk34Nykcwrp+VmSYDvSP7ZNWk0wG/kSDlFfpV5YbB8IN/KUTJ2gONQ3kRwAMpDo1p+4Pvyvfn+QDlWE9G7uAzFsuKyMzYVl7mnmQyeKC/LZ1GtkuGSHgnvQzkLNJ3BcWgkwPwjNkjaZ/abK8tZIOmcs205KzJCKgI8Xl6VbMfDssQweUT+lmw7J7NEKgJ8SrLtiSzPXC6zaSrY9lmulVkjFQGuZo5kX5qL9TJOlzCtpCrAA+UB+VPSZEySWSc1AZ4tH0r2+SZDdwNbRdMBTioA/eQ+ScZOljckN0I4qZk6xMngu5L13+U22Ve2E01ncKP3IjjACEm3ix4Bgdwq98h7cqXkGj0uvH6WHBDV6vNUvigU6zJNcv+Ac0F3IcCf5DvJvRgCHPxexBB5vVjfK/vLRtkheX1cP0h+3HpslOzPvykJms7gONRqIshm2t+k4RirC8UKWP9advVjTpAfJfttYUVC9FiAQ8Ex6JFUc1OybU1Uq4TMpklg+0lWJEjbBZjeB01QNUslx38kq88fZyTbGOIaxIoEaasA0+xwMusMupWPJZ9hMSvKYN17ySh40jQd4DReCEyV9wvF/yCz9xeKUe+lBJn9Qy6Rz1mRFtIYYIajugowHJevJN27+ZIuJPeXuU16SWaOVjcRXA3Sh60F7TNdNj4LXpMhaasmgtEQTmK1+CIPFYpRty3TI92tzuB1xWU9GOmlPaZJCU3TGRyHVgc4jbRVE9FWOMCBcYAD4wAHxgEOjAMcGAc4MA5wYBzgwDjAgWl0VLk0w52R3TzNeSARx0oulYPOcOe2IOW8ekUC5Vj3IhrN4D5yjMwrzG3+JQlwYg/BlJ6TY/TAFOAhRBIvkefkmGdW/jexBYlLXeJk8ELJoGKcfUOzQh4rFHsUAsyE87NRrY1gcmGmcD84MA5wYEK3qzyIuFsmNV+YJ5k6e/auGZjWul2eiGoZZZesPvumyZ0yKK3oGYyWIaa4dhemWjGnwhhjjDHGGGOMMcYYY4wxxphwdHT8BTbaFqkrIImwAAAAAElFTkSuQmCC;" vertex="1" parent="1">
          <mxGeometry x="289.5" y="729" width="21" height="21" as="geometry" />
        </mxCell>
        <mxCell id="HdrIIrpfXrWL4ybk8j8O-53" value="" style="endArrow=none;html=1;rounded=0;strokeColor=#33FFFF;exitX=0.5;exitY=0.524;exitDx=0;exitDy=0;exitPerimeter=0;" edge="1" parent="1" source="HdrIIrpfXrWL4ybk8j8O-51">
          <mxGeometry width="50" height="50" relative="1" as="geometry">
            <mxPoint x="210" y="750" as="sourcePoint" />
            <mxPoint x="300" y="660" as="targetPoint" />
          </mxGeometry>
        </mxCell>
        <mxCell id="HdrIIrpfXrWL4ybk8j8O-61" value="" style="endArrow=none;html=1;rounded=0;" edge="1" parent="1">
          <mxGeometry width="50" height="50" relative="1" as="geometry">
            <mxPoint x="360" y="599.5" as="sourcePoint" />
            <mxPoint x="360" y="879.5" as="targetPoint" />
          </mxGeometry>
        </mxCell>
        <mxCell id="HdrIIrpfXrWL4ybk8j8O-62" value="" style="endArrow=none;html=1;rounded=0;" edge="1" parent="1">
          <mxGeometry width="50" height="50" relative="1" as="geometry">
            <mxPoint x="120" y="640" as="sourcePoint" />
            <mxPoint x="400" y="640" as="targetPoint" />
          </mxGeometry>
        </mxCell>
        <mxCell id="HdrIIrpfXrWL4ybk8j8O-63" value="" style="endArrow=classic;html=1;rounded=0;strokeColor=#57FF57;" edge="1" parent="1">
          <mxGeometry width="50" height="50" relative="1" as="geometry">
            <mxPoint x="380" y="620" as="sourcePoint" />
            <mxPoint x="140" y="620" as="targetPoint" />
          </mxGeometry>
        </mxCell>
        <mxCell id="HdrIIrpfXrWL4ybk8j8O-64" value="" style="endArrow=classic;html=1;rounded=0;strokeColor=#57FF57;" edge="1" parent="1">
          <mxGeometry width="50" height="50" relative="1" as="geometry">
            <mxPoint x="140" y="620" as="sourcePoint" />
            <mxPoint x="140" y="660" as="targetPoint" />
          </mxGeometry>
        </mxCell>
        <mxCell id="HdrIIrpfXrWL4ybk8j8O-65" value="" style="endArrow=classic;html=1;rounded=0;strokeColor=#57FF57;" edge="1" parent="1">
          <mxGeometry width="50" height="50" relative="1" as="geometry">
            <mxPoint x="380" y="659.8" as="sourcePoint" />
            <mxPoint x="380" y="659.8" as="targetPoint" />
            <Array as="points">
              <mxPoint x="140" y="659.8" />
            </Array>
          </mxGeometry>
        </mxCell>
        <mxCell id="HdrIIrpfXrWL4ybk8j8O-66" value="" style="endArrow=classic;html=1;rounded=0;strokeColor=#57FF57;" edge="1" parent="1">
          <mxGeometry width="50" height="50" relative="1" as="geometry">
            <mxPoint x="380" y="660" as="sourcePoint" />
            <mxPoint x="380" y="860" as="targetPoint" />
          </mxGeometry>
        </mxCell>
        <mxCell id="HdrIIrpfXrWL4ybk8j8O-68" value="" style="shape=image;verticalLabelPosition=bottom;verticalAlign=top;imageAspect=0;aspect=fixed;image=data:image/svg+xml,PHN2ZyB4bWxuczp4bGluaz0iaHR0cDovL3d3dy53My5vcmcvMTk5OS94bGluayIgeG1sbnM9Imh0dHA6Ly93d3cudzMub3JnLzIwMDAvc3ZnIiBoZWlnaHQ9IjIwMCIgd2lkdGg9IjIwMCIgdmVyc2lvbj0iMS4xIiB2aWV3Qm94PSIwIDAgMTAyNCAxMDI0IiBjbGFzcz0iaWNvbiI+PHBhdGggZmlsbD0iIzQyNDI0MiIgZD0iTTM0MC42NDYyNDcgODA5LjE3MDI5OWExMzguMjU4ODI3IDEzOC4yNTg4MjcgMCAxIDEtMTE0LjQyODk5LTExNC40Mjg5OWMxNC44NjE0NjUtMTUuOTQ4NTQgMjguMzkyNjkzLTMxLjM2Nzg0NyA0MC40MDc3MzctNDYuMDU3NjY4YTE5My4wOTg5MjEgMTkzLjA5ODkyMSAwIDAgMC0xOTguODIwMzcgNDYuMDg2Mjc1Yy03NS4yMDg0NTQgNzUuMjA4NDU0LTc1LjIwODQ1NCAxOTcuNTkwMjU4IDAgMjcyLjgxMzAxNnMxOTcuNjA0NTYyIDc1LjIyMjc1NyAyNzIuODI3MzE5IDBhMTkzLjA5ODkyMSAxOTMuMDk4OTIxIDAgMCAwIDQ2LjEwMDU3OS0xOTguNzQ4ODUyYy0xNC43MTg0MjkgMTEuOTg2NDM3LTMwLjE2NjM0MiAyNS40ODkwNTgtNDYuMDg2Mjc1IDQwLjMzNjIxOXpNNzY0LjgwNTkwNSA2NDEuNjg5MTY5Qzc3Ni42MjA2OTkgNjU2LjUzNjMzIDc4OS45NjU5OCA2NzIuMDEyODUxIDgwNC42MTI4OSA2ODguMDA0MzAyQTEzOC4yNzMxMzEgMTM4LjI3MzEzMSAwIDEgMSA2ODkuODQwNjEzIDgwMi44NDgwOTdjLTE1Ljk5MTQ1MS0xNC42MzI2MDctMzEuNDY3OTcyLTI3Ljk2MzU4NC00Ni4zMjk0MzctMzkuNzY0MDc0QTE5My4wOTg5MjEgMTkzLjA5ODkyMSAwIDAgMCA2ODkuODQwNjEzIDk2MC44ODg4MzZjNzUuMjIyNzU3IDc1LjIyMjc1NyAxOTcuNjE4ODY2IDc1LjIyMjc1NyAyNzIuODI3MzIgMHM3NS4yMjI3NTctMTk3LjYwNDU2MiAwLTI3Mi44MjczMTlhMTkzLjA5ODkyMSAxOTMuMDk4OTIxIDAgMCAwLTE5Ny44NjIwMjgtNDYuMzcyMzQ4ek02OTIuODE1NzY3IDIyNy44NTY3MjZhMTM4LjI3MzEzMSAxMzguMjczMTMxIDAgMSAxIDExNC43MDA3NTkgMTE0LjY3MjE1MmMtMTUuMjQ3NjYzIDE2LjUyMDY4NS0yOC41MzU3MjkgMzEuOTI1Njg4LTQwLjA1MDE0NyA0Ni4yMjkzMTJhMTkzLjA5ODkyMSAxOTMuMDk4OTIxIDAgMCAwIDE5OC4yMzM5MjItNDYuMjcyMjIzYzc1LjIyMjc1Ny03NS4yMjI3NTcgNzUuMjIyNzU3LTE5Ny42MDQ1NjIgMC0yNzIuODI3MzE5cy0xOTcuNjE4ODY2LTc1LjIyMjc1Ny0yNzIuODI3MzE5IDBhMTkzLjA5ODkyMSAxOTMuMDk4OTIxIDAgMCAwLTQ2LjI0MzYxNiAxOTguMzM0MDQ3YzEzLjk0NjAzMy0xMS4yNTY5NTIgMjkuMzIyNDI5LTI0LjUzMDcxNSA0Ni4xODY0MDEtNDAuMTM1OTY5ek0yNTguMjg1OTgxIDM3NC45NDA4ODljLTEyLjQ0NDE1My0xNC43NzU2NDMtMjYuMjA0MjM5LTMwLjAzNzYxLTQxLjEyMjkxOC00NS43NzE1OTZhMTM4LjI1ODgyNyAxMzguMjU4ODI3IDAgMSAxIDExMy44MjgyMzgtMTEzLjc4NTMyN2MxNS42NDgxNjQgMTQuOTA0Mzc2IDMwLjk5NTk1MyAyOC42MDcyNDcgNDUuNzcxNTk2IDQxLjEyMjkxOWExOTMuMDk4OTIxIDE5My4wOTg5MjEgMCAwIDAtNDUuNjg1Nzc1LTIwMC4wOTMzOTNDMjU1Ljg1NDM2NS0xOC44MDkyNjUgMTMzLjQyOTY1LTE4LjgwOTI2NSA1OC4yNDk4MDMgNTYuNDEzNDkycy03NS4yMjI3NTcgMTk3LjYwNDU2MiAwIDI3Mi44MjczMTlhMTkzLjE4NDc0MiAxOTMuMTg0NzQyIDAgMCAwIDIwMC4wMzYxNzggNDUuNzAwMDc4ek01MTguMzQwMTY1IDQ2MC4xNzYxODNhNTYuMzI3NjcgNTYuMzI3NjcgMCAxIDAgMzkuOTA3MTEgMTYuNDkyMDc4IDU2LjAxMjk5MSA1Ni4wMTI5OTEgMCAwIDAtMzkuOTA3MTEtMTYuNDkyMDc4eiIvPjxwYXRoIGZpbGw9IiM0MjQyNDIiIGQ9Ik03ODcuOTQ5MTY5IDg0NS4zNDQxNjNjMy4yMDQwMTIgMy40MTg1NjYgMTEuMDU2NzAxIDEyLjMxNTQyIDEyLjcwMTYxNyAxMy45NDYwMzRsMC44MTUzMDcgMC43ODY2OTlhOC4wMTAwMjkgOC4wMTAwMjkgMCAwIDAgMS40MzAzNjIgMS4zMDE2M2MxOS4xOTU0NjMgMTcuMjY0NDc0IDQ2LjgxNTc2MSAxOC41OTQ3MTEgNjIuOTM1OTQ1IDIuNDE3MzEyIDE1LjEzMzIzNC0xNS4xMzMyMzQgMTQuOTQ3Mjg3LTQwLjM5MzQzMyAwLjYxNTA1Ni01OS4zMTcxMjhhMTY5Ljk5ODU2OCAxNjkuOTk4NTY4IDAgMCAwLTEyLjI0MzkwMi0xMi4xNzIzODNjLTEuNTg3NzAyLTEuMzQ0NTQxLTIuODYwNzI1LTIuNTE3NDM4LTMuNDc1NzgxLTMuMDAzNzYxLTQ0LjEyNjY3OS00MC44Nzk3NTctMTg4LjEzNTU2My0xODAuNzI2Mjg2LTE4NS4zMDM0NDUtMjYyLjY1NzQ0MyAwLjExNDQyOS0zLjQxODU2NiAwLTE3Ljc3OTQwNCAwLTIxLjkyNzQ1NS0wLjQwMDUwMS04Mi4yMDI5MjYgMTQxLjYwNTg3NS0yMjAuMDc1NTU1IDE4NS4zNDYzNTYtMjYwLjYxMjAyNSAwLjU0MzUzOC0wLjQ4NjMyMyAxLjg4ODA3OC0xLjY1OTIyIDMuNDc1NzgxLTMuMDE4MDY1YTE2Ny4wNTIwMjIgMTY3LjA1MjAyMiAwIDAgMCAxMi4yNDM5MDItMTIuMTU4MDhjMTQuMzAzNjI0LTE4LjkyMzY5NCAxNC41MTgxNzgtNDQuMTgzODk0LTAuNjE1MDU2LTU5LjMxNzEyOC0xNi4xMjAxODQtMTYuMTIwMTg0LTQzLjc0MDQ4MS0xNC44NDcxNjEtNjIuOTM1OTQ1IDIuNDE3MzEzYTguMDEwMDI5IDguMDEwMDI5IDAgMCAwLTEuNDMwMzYyIDEuMzAxNjNjLTAuMjcxNzY5IDAuMjcxNzY5LTAuNTQzNTM4IDAuNTE0OTMtMC44MTUzMDcgMC43NzIzOTUtMS42NDQ5MTcgMS42NDQ5MTctOS40OTc2MDYgMTAuNTQxNzcxLTEyLjcwMTYxOCAxMy45NzQ2NDEtNDMuMDY4MjExIDQ2LjEyOTE4Ny0xNzAuNTk5MzIgMTc1LjUzNDA3MS0yNTEuMjI4ODQ3IDE4MS42NTYwMjEtNi4zNTA4MDkgMC40ODYzMjMtMjguMDYzNzEgMC4zODYxOTgtMzMuMzcwMzU0IDAuMTcxNjQ0LTgyLjU0NjIxMy0zLjI0NjkyMy0yMTcuNDE1MDgxLTE0Mi4xMDY1MDItMjU3LjM1MDc5OS0xODUuMjg5MTQyLTAuNTAwNjI3LTAuNTQzNTM4LTEuNjU5MjItMS44ODgwNzgtMy4wMTgwNjQtMy40NzU3ODFhMTY0LjI2MjgxNSAxNjQuMjYyODE1IDAgMCAwLTEyLjE1ODA4LTEyLjI0MzkwMmMtMTguOTIzNjk0LTE0LjMwMzYyNC00NC4xODM4OTQtMTQuNTE4MTc4LTU5LjMxNzEyOCAwLjYwMDc1Mi0xNi4xMjAxODQgMTYuMTM0NDg4LTE0Ljg2MTQ2NSA0My43NTQ3ODUgMi40MTczMTIgNjIuOTM1OTQ1YTguNjgyMyA4LjY4MjMgMCAwIDAgMS4zMDE2MyAxLjQzMDM2MmwwLjc3MjM5NiAwLjgwMTAwM2MxLjY0NDkxNyAxLjY1OTIyIDEwLjU0MTc3MSA5LjQ5NzYwNiAxMy45NjAzMzYgMTIuNzAxNjE4QzIzNC44OTk1NTYgMjg5LjM2MjMwOCAzNTguODI2MTUzIDQxMS40NDM3MzcgMzcwLjg2OTgwNCA0OTIuMjU5MjExYzEuMzAxNjMgOC42OTY2MDMgMS4yMTU4MDggNDQuMjEyNTAxLTEuMTE1NjgzIDU1LjIyNjI5Mi0xNy4xNjQzNDggODAuNzI5NjUyLTEzNS45OTg4NTUgMTk3LjczMzI5NS0xNzkuODEwODU0IDIzOC42MjczNTUtMy40MTg1NjYgMy4yMTgzMTUtMTIuMzE1NDIgMTEuMDU2NzAxLTEzLjk2MDMzNyAxMi43MDE2MTdsLTAuNzcyMzk1IDAuODE1MzA3YTguMDEwMDI5IDguMDEwMDI5IDAgMCAwLTEuMzAxNjMgMS40MzAzNjJjLTE3LjI3ODc3NyAxOS4xOTU0NjMtMTguNTk0NzExIDQ2LjgxNTc2MS0yLjQxNzMxMyA2Mi45MzU5NDUgMTUuMTMzMjM0IDE1LjEzMzIzNCA0MC4zOTM0MzMgMTQuOTYxNTkgNTkuMzE3MTI4IDAuNjE1MDU2YTE2Ny4wNTIwMjIgMTY3LjA1MjAyMiAwIDAgMCAxMi4xNTgwOC0xMi4yNDM5MDJjMS4zNTg4NDQtMS41ODc3MDIgMi41MTc0MzgtMi44NjA3MjUgMy4wMzIzNjgtMy40NzU3ODFDMjg1LjA0ODA2MSA4MDYuNzI0Mzc5IDQxNC40NjcyNDkgNjczLjM0MzA4OCA0OTcuMzg1MzU2IDY2NC4wMzE0MjljNy40ODA3OTUtMC44NDM5MTQgMzMuOTU2ODAzLTAuODE1MzA3IDQwLjg2NTQ1My0wLjE1NzM0QzYxOC45NjYxNTggNjcxLjQ4MzYxNyA3NDUuMTUyNzI2IDc5OS41NzI1NjcgNzg3Ljk0OTE2OSA4NDUuMzQ0MTYzek01ODAuMjQ2MjQ4IDU3OC40MDk5MzdhODcuNTUyNDgxIDg3LjU1MjQ4MSAwIDEgMSAwLTEyMy44MTIxNjcgODYuOTgwMzM2IDg2Ljk4MDMzNiAwIDAgMSAwIDEyMy44MTIxNjd6Ii8+PC9zdmc+" vertex="1" parent="1">
          <mxGeometry x="370" y="610" width="20" height="20" as="geometry" />
        </mxCell>
        <mxCell id="HdrIIrpfXrWL4ybk8j8O-69" value="" style="endArrow=none;html=1;rounded=0;strokeColor=#33FFFF;" edge="1" parent="1">
          <mxGeometry width="50" height="50" relative="1" as="geometry">
            <mxPoint x="300" y="740" as="sourcePoint" />
            <mxPoint x="260" y="660" as="targetPoint" />
          </mxGeometry>
        </mxCell>
      </root>
    </mxGraphModel>
  </diagram>
</mxfile>
